# xmcd
#
# Track frame offsets: 
#        150
#        16976
#        33451
#        52889
#        70021
#        85997
#        99589
#        114115
#        130260
#        150219
#        167080
#        188888
#
# Disc length: 2728 seconds
#
# Revision: 0
# Processed by: cddbd v1.5.2PL0 Copyright (c) Steve Scherf et al.
# Submitted via: ExactAudioCopy v1.3
#
DISCID=890aa60c
DTITLE=Marta Kubišová - SOUL
DYEAR=2016
DGENRE=Soul
TTITLE0=Cau, good bye
TTITLE1=A to me trapi
TTITLE2=Kdysi davno
TTITLE3=Par dnu
TTITLE4=Odveka zena
TTITLE5=Duvod mam
TTITLE6=Prejdi ten prah
TTITLE7=Malo je lasky
TTITLE8=Hlas nejtissi
TTITLE9=Jesse, pojd spat
TTITLE10=Protihrac
TTITLE11=Cesta tva ma byt tvuj cil
EXTD=
EXTT0=
EXTT1=
EXTT2=
EXTT3=
EXTT4=
EXTT5=
EXTT6=
EXTT7=
EXTT8=
EXTT9=
EXTT10=
EXTT11=
PLAYORDER=
